<svg xmlns="http://www.w3.org/2000/svg" xml:space="preserve" width="2048" height="2048" style="shape-rendering:geometricPrecision;text-rendering:geometricPrecision;image-rendering:optimizeQuality;fill-rule:evenodd;clip-rule:evenodd"><defs><clipPath id="id0"><path d="M1024-.001c565.541 0 1024 458.46 1024 1024s-458.461 1024-1024 1024c-565.541 0-1024-458.461-1024-1024 0-565.541 458.461-1024 1024-1024z"/></clipPath><style>.fil7{fill:#263238}.fil1{fill:#43a047}.fil6{fill:#0091ea;fill-rule:nonzero}</style></defs><g id="Layer_x0020_1"><path d="M1024-.001c565.541 0 1024 458.46 1024 1024s-458.461 1024-1024 1024c-565.541 0-1024-458.461-1024-1024 0-565.541 458.461-1024 1024-1024z" style="fill:#66bb6a"/><g style="clip-path:url(#id0)"><g id="_466415128"><path id="_4625840321" class="fil1" d="M772.163 470.835 1908.04 1606.72l1.51 1.65 1.34 1.8 1.17 1.92.98 2.04.79 2.15.58 2.23.35 2.32.12 2.39L778.998 487.334l-.121-2.386-.353-2.316-.575-2.236-.785-2.145-.983-2.038-1.168-1.924-1.344-1.797z"/><path id="_462584872" class="fil1" d="m1584 1524.21 1135.88 1135.88-.02 1.54-.06 1.53-.09 1.52-.14 1.51-.17 1.5-.21 1.49-.25 1.47-.28 1.47-.32 1.45-.35 1.43-.38 1.43-.43 1.41-.45 1.39-.49 1.38-.52 1.37-.55 1.35-.59 1.33-.61 1.32-.65 1.29-.68 1.28-.7 1.27-.74 1.24-.76 1.22-.8 1.2-.82 1.19-.85 1.16-.87 1.14-.9 1.12-.93 1.09-.95 1.08-.98 1.05-1.01 1.03-1135.88-1135.89 1.01-1.02.97-1.05.96-1.08.93-1.09.9-1.12.87-1.14.85-1.17.82-1.18.8-1.2.76-1.22.74-1.25.7-1.26.68-1.28.65-1.3.61-1.31.59-1.33.55-1.35.52-1.37.49-1.38.45-1.39.42-1.41.39-1.43.35-1.44.32-1.45.28-1.46.25-1.48.21-1.48.17-1.5.14-1.51.09-1.52.06-1.53z"/><path id="_462581896" class="fil1" d="m1566.45 1566.45 1135.88 1135.89-1.02 1-1.05.98-1.08.95-1.09.93-1.12.9-1.14.88-1.16.84-1.19.82-1.2.8-1.22.76-1.25.74-1.26.71-1.28.67-1.29.65-1.32.61-1.33.59-1.35.55-1.37.52-1.38.49-1.39.45-1.41.43-1.43.38-1.43.36-1.45.31-1.47.28-1.47.25-1.49.21-1.5.17-1.51.14-1.52.09-1.53.06-1.54.02L1524.21 1584l1.54-.02 1.53-.06 1.52-.09 1.51-.14 1.5-.17 1.48-.21 1.48-.25 1.46-.28 1.46-.32 1.43-.35 1.43-.39 1.41-.42 1.39-.45 1.38-.49 1.37-.52 1.35-.55 1.33-.59 1.31-.61 1.3-.65 1.28-.68 1.26-.7 1.25-.74 1.22-.76 1.2-.8 1.18-.82 1.17-.85 1.14-.87 1.12-.9 1.09-.93 1.08-.96 1.05-.97z"/><path id="_462583096" class="fil1" d="m1524.21 1584 1135.88 1135.88H1659.67L523.791 1584z"/><path id="_462582184" class="fil1" d="M523.791 1584 1659.67 2719.88l-1.54-.02-1.53-.06-1.52-.09-1.51-.14-1.5-.17-1.48-.21-1.48-.25-1.46-.28-1.45-.31-1.44-.36-1.43-.38-1.41-.43-1.39-.45-1.38-.49-1.37-.52-1.35-.55-1.33-.59-1.31-.61-1.3-.65-1.28-.67-1.26-.71-1.25-.74-1.22-.76-1.2-.8-1.18-.82-1.17-.84-1.14-.88-1.12-.9L485.792 1570.32l1.12.9 1.141.87 1.161.85 1.184.82 1.202.8 1.224.76 1.242.74 1.262.7 1.28.68 1.297.65 1.315.61 1.333.59 1.349.55 1.365.52 1.379.49 1.397.45 1.41.42 1.424.39 1.438.35 1.451.32 1.464.28 1.476.25 1.487.21 1.499.17 1.51.14 1.52.09 1.53.06z"/><path id="_462583192" class="fil1" d="M778.998 487.334 1914.88 1623.22v93.32L778.998 580.661z"/><path id="_462581752" class="fil1" d="M1042 472.492 2177.88 1608.37l1.35 1.8 1.16 1.92.99 2.04.78 2.15.58 2.23.35 2.32.12 2.39L1047.33 487.334l-.12-2.386-.35-2.316-.58-2.236-.79-2.145-.98-2.038-1.17-1.924z"/><path id="_462581776" class="fil1" d="M1047.33 487.334 2183.21 1623.22v93.32L1047.33 580.661z"/><path id="_462581680" class="fil1" d="M1584 865.792 2719.88 2001.67v658.42L1584 1524.21z"/><path id="_462581560" class="fil1" d="M1310.33 472.492 2446.21 1608.37l1.35 1.8 1.17 1.92.98 2.04.78 2.15.58 2.23.35 2.32.12 2.39L1315.66 487.334l-.12-2.386-.35-2.316-.58-2.236-.78-2.145-.98-2.038-1.17-1.924z"/><path id="_462581536" class="fil1" d="M1315.66 487.334 2451.54 1623.22v93.32L1315.66 580.661z"/><path id="_462581320" class="fil1" d="M1584 580.662 2719.88 1716.54v23.34L1584 603.995z"/><path id="_462581416" class="fil1" d="M1584 603.995 2719.88 1739.88v228.2L1584 832.198z"/><path id="_462583480" class="fil1" d="M1584 832.198 2719.88 1968.08v5.13L1584 837.329z"/><path id="_462581248" class="fil1" d="M1584 837.329 2719.88 1973.21v25.41L1584 862.738z"/><path id="_462580984" class="fil1" d="M1584 862.738 2719.88 1998.62v3.05L1584 865.792z"/><path id="_466415440" class="fil1" d="M1584 865.792v658.415c0 16.466-6.72 31.42-17.547 42.246-10.824 10.826-25.778 17.546-42.244 17.546H523.789c-16.466 0-31.42-6.72-42.246-17.546-10.823-10.825-17.545-25.78-17.545-42.246V580.662l23.334-.001h244.996v-93.327c0-12.886 10.447-23.334 23.334-23.334 12.886 0 23.334 10.448 23.334 23.334v93.327h221.664v-93.327c0-12.886 10.448-23.334 23.334-23.334 12.887 0 23.333 10.448 23.333 23.334v93.327h221.666v-93.327c0-12.886 10.446-23.334 23.333-23.334 12.887 0 23.334 10.448 23.334 23.334v93.327h245.005l23.334.001v285.13z"/></g></g><path d="M1024-.001c565.541 0 1024 458.46 1024 1024s-458.461 1024-1024 1024c-565.541 0-1024-458.461-1024-1024 0-565.541 458.461-1024 1024-1024z" style="fill:none"/><path d="M1584 837.329v686.879c0 16.466-6.72 31.42-17.547 42.246-10.824 10.826-25.778 17.546-42.244 17.546H523.789c-16.466 0-31.42-6.72-42.246-17.546-10.823-10.825-17.545-25.78-17.545-42.246V837.329h1120z" style="fill:#bdbdbd"/><path d="M487.334 580.661h1073.33l23.334.001V837.33h-1120V580.662l23.334-.001z" style="fill:#ff3d00"/><path d="M487.334 865.792h1096.664v-33.594h-1120v33.594h23.334z" style="fill:#db3300"/><path class="fil6" d="M732.33 487.334c0-12.886 10.447-23.334 23.334-23.334 12.886 0 23.334 10.448 23.334 23.334v233.333c0 12.886-10.448 23.334-23.334 23.334-12.887 0-23.334-10.448-23.334-23.334V487.334zM1000.66 487.334c0-12.886 10.448-23.334 23.334-23.334 12.887 0 23.334 10.448 23.334 23.334v233.333c0 12.886-10.447 23.334-23.334 23.334-12.886 0-23.334-10.448-23.334-23.334V487.334zM1268.99 487.334c0-12.886 10.447-23.334 23.334-23.334s23.334 10.448 23.334 23.334v233.333c0 12.886-10.447 23.334-23.334 23.334s-23.334-10.448-23.334-23.334V487.334z"/><path class="fil7" d="M1340.41 1373.7v50.463h-282.571c-.398-12.64 1.592-24.783 6.07-36.43 7.168-19.31 18.713-38.22 34.539-56.93 15.924-18.614 38.817-40.212 68.677-64.697 46.481-38.121 77.933-68.28 94.256-90.574 16.324-22.195 24.485-43.297 24.485-63.104 0-20.802-7.464-38.32-22.294-52.652-14.93-14.233-34.34-21.4-58.227-21.4-25.28 0-45.486 7.565-60.615 22.793-15.229 15.13-22.892 36.13-23.091 62.905l-53.947-5.475c3.684-40.31 17.617-70.965 41.705-92.067 24.086-21.101 56.533-31.65 97.143-31.65 41.007 0 73.454 11.446 97.342 34.139 23.987 22.793 35.93 50.96 35.93 84.602 0 17.12-3.483 33.94-10.55 50.462-6.967 16.522-18.613 33.941-34.836 52.156-16.224 18.313-43.197 43.395-80.919 75.246-31.453 26.475-51.658 44.39-60.615 53.846-8.958 9.357-16.324 18.812-22.195 28.367h209.713zM1008.27 1373.7v50.463H725.699c-.398-12.64 1.592-24.783 6.07-36.43 7.168-19.31 18.713-38.22 34.539-56.93 15.924-18.614 38.817-40.212 68.677-64.697 46.481-38.121 77.933-68.28 94.256-90.574 16.324-22.195 24.485-43.297 24.485-63.104 0-20.802-7.464-38.32-22.294-52.652-14.93-14.233-34.34-21.4-58.227-21.4-25.28 0-45.486 7.565-60.616 22.793-15.228 15.13-22.89 36.13-23.09 62.905l-53.947-5.475c3.684-40.31 17.617-70.965 41.705-92.067 24.086-21.101 56.533-31.65 97.143-31.65 41.007 0 73.454 11.446 97.342 34.139 23.987 22.793 35.93 50.96 35.93 84.602 0 17.12-3.483 33.94-10.55 50.462-6.967 16.522-18.613 33.941-34.836 52.156-16.224 18.313-43.197 43.395-80.919 75.246-31.453 26.475-51.658 44.39-60.615 53.846-8.958 9.357-16.324 18.812-22.195 28.367h209.713z"/></g></svg>